<mxfile host="app.diagrams.net" modified="2023-12-05T11:28:10.522Z" agent="Mozilla/5.0 (Windows NT 10.0; Win64; x64) AppleWebKit/537.36 (KHTML, like Gecko) Chrome/119.0.0.0 Safari/537.36" etag="YubkjqLY__pKlHHIe-D2" version="22.1.5" type="github">
  <diagram name="Страница — 1" id="G-JK8_RctujHKEv6WD_-">
    <mxGraphModel dx="1434" dy="758" grid="1" gridSize="10" guides="1" tooltips="1" connect="1" arrows="1" fold="1" page="1" pageScale="1" pageWidth="827" pageHeight="1169" math="0" shadow="0">
      <root>
        <mxCell id="0" />
        <mxCell id="1" parent="0" />
        <mxCell id="86sQ_6q-Age_LWsJIRfi-1" value="Сортируем категории" style="swimlane;whiteSpace=wrap;html=1;" vertex="1" parent="1">
          <mxGeometry x="40" y="280" width="200" height="270" as="geometry" />
        </mxCell>
        <mxCell id="86sQ_6q-Age_LWsJIRfi-2" value="Фиксируем&amp;nbsp;" style="rounded=0;whiteSpace=wrap;html=1;" vertex="1" parent="86sQ_6q-Age_LWsJIRfi-1">
          <mxGeometry x="40" y="40" width="120" height="60" as="geometry" />
        </mxCell>
      </root>
    </mxGraphModel>
  </diagram>
</mxfile>
